<svg version="1.2" xmlns="http://www.w3.org/2000/svg" viewBox="0 0 800 800" width="800" height="800"><style>.a{fill:#6359ff}.b{fill:#ffc806}.c{fill:#0bbfbf}</style><path class="a" d="m80.7 587.3v-335.5c0-9.2 9.9-15 18-10.4l288.9 167.7c7.5 4.3 12 12.3 12 20.9v335.5c0 9.2-9.9 15-18 10.4l-288.9-167.7c-7.5-4.3-12-12.3-12-20.9z"/><path class="b" d="m118.2 191.8l284.4-165.1c7.5-4.3 16.6-4.3 24 0l284.5 165.1c10 5.8 10 20.3 0 26.1l-284.5 165.1c-7.4 4.3-16.5 4.3-24 0l-284.4-165.1c-10-5.8-10-20.3 0-26.1z"/><path class="c" d="m429.6 765.5v-311.1c0-9.3 10-15.1 18-10.5l263.5 153c10 5.8 10 20.3 0 26.1l-263.5 152.9c-8 4.7-18-1.1-18-10.4z"/></svg>